<svg xmlns="http://www.w3.org/2000/svg" viewBox="0 0 841.9 595.3">
  <path fill="#61DAFB" d="M666.3 296.5c0-32.5 14.7-63.4 40-84.2 25.3-20.7 59.2-32.1 94.6-32.1 27 0 53.5 7.3 77.3 21.1v-51.7c0-30.6-12.9-60-36.4-81.7-23.5-21.7-56-33.6-89.9-33.6-25.7 0-50.8 6.8-73.5 19.5l-27.1 15.6c-13.1-24-29.8-46.2-49-65.7-37.7-38-85.2-60-135.8-60-50.5 0-98 22-135.7 60-19.3 19.5-36 41.7-49 65.7l-27.2-15.6c-22.6-12.8-47.8-19.5-73.4-19.5-33.9 0-66.4 11.9-89.9 33.6-23.5 21.7-36.4 51.1-36.4 81.7v51.7c23.8-13.8 50.3-21.1 77.3-21.1 35.4 0 69.3 11.4 94.6 32.1 25.3 20.8 40 51.7 40 84.2s-14.7 63.4-40 84.2c-25.3 20.7-59.2 32.1-94.6 32.1-27 0-53.5-7.3-77.3-21.1v51.7c0 30.6 12.9 60 36.4 81.7 23.5 21.7 56 33.6 89.9 33.6 50.5 0 98-22 135.7-60 19.3-19.5 36-41.7 49-65.7l27.2 15.6c22.6 12.8 47.8 19.5 73.4 19.5 33.9 0 66.4-11.9 89.9-33.6 23.5-21.7 36.4-51.1 36.4-81.7v-51.7c-23.8 13.8-50.3 21.1-77.3 21.1zm-303.8 81.5c-25.3-20.8-40-51.7-40-84.2s14.7-63.4 40-84.2c25.3-20.7 59.2-32.1 94.6-32.1 27 0 53.5 7.3 77.3 21.1v190.2c-23.8-13.8-50.3-21.1-77.3-21.1-35.4 0-69.3-11.4-94.6-32.1zm303.8-190.2v190.2c23.8-13.8 50.3-21.1 77.3-21.1 35.4 0 69.3 11.4 94.6 32.1 25.3 20.8 40 51.7 40 84.2s-14.7 63.4-40 84.2c-25.3 20.7-59.2 32.1-94.6 32.1-27 0-53.5-7.3-77.3-21.1v-190.2c23.8 13.8 50.3 21.1 77.3 21.1 35.4 0 69.3-11.4 94.6-32.1z"></path>
</svg>